<svg width="1080" height="1080" viewBox="0 0 1080 1080" fill="none" xmlns="http://www.w3.org/2000/svg">
<circle cx="540.5" cy="540.5" r="468.5" fill="url(#paint0_radial_463_2)" stroke="url(#paint1_radial_463_2)" stroke-width="50"/>
<circle cx="540.5" cy="540.5" r="202.5" stroke="#EAEAEA" stroke-width="10"/>
<circle cx="540.5" cy="540.5" r="233.5" stroke="#EAEAEA" stroke-width="10"/>
<path d="M691 588.5C691 608.264 687.107 627.834 679.544 646.094C671.981 664.353 660.895 680.944 646.92 694.92C632.944 708.895 616.353 719.981 598.094 727.544C579.834 735.107 560.264 739 540.5 739C520.736 739 501.166 735.107 482.906 727.544C464.647 719.981 448.056 708.895 434.08 694.92C420.105 680.944 409.019 664.353 401.456 646.094C393.893 627.834 390 608.264 390 588.5L540.5 588.5H691Z" fill="#EAEAEA"/>
<path d="M614.8 583C607.916 583.021 594.617 576.872 592.674 572.178C641.268 542.448 627.315 549.685 589.564 568.658C587.619 565.528 586.473 549.138 592.462 540.946C598.451 532.754 602.811 530.569 610.096 528.172C617.38 525.775 638.32 521.782 646.16 512C650.08 519.889 654 528.488 654 543.556C654 565.25 635.262 583 614.8 583Z" fill="#EAEAEA"/>
<path d="M572.443 562C575.154 562.009 580.393 559.497 581.159 557.58C562.016 545.437 567.512 548.392 582.384 556.142C583.15 554.864 583.602 548.169 581.242 544.823C578.883 541.477 577.165 540.585 574.296 539.606C571.426 538.626 563.177 536.996 560.088 533C558.544 536.222 557 539.734 557 545.889C557 554.75 564.382 562 572.443 562Z" fill="#EAEAEA"/>
<path d="M448.001 511.501L490.5 575.502L560.5 575.001L479 489C478.5 487.5 478.5 487 478 484C473.853 459.118 470 458.504 463 464.002C460.707 465.803 443.943 478.547 430.5 489.002C421.5 496.001 432.5 503.001 443.002 508.501L448.001 511.501Z" fill="#EAEAEA"/>
<path d="M247.314 585.979L207.688 636.376C207.098 637.132 206.538 637.88 206.01 638.62C205.403 639.314 204.804 640.04 204.214 640.796L204.239 640.889L243.826 629.884C245.371 629.466 246.915 629.049 248.46 628.631C250.004 628.213 251.535 627.866 253.051 627.588C252.687 626.493 252.323 625.398 251.959 624.303C251.595 623.208 251.232 622.113 250.868 621.019L254.945 619.916L259.553 636.869L256.494 637.696C255.974 635.781 255.203 634.531 254.182 633.946C253.082 633.315 251.942 633.026 250.763 633.08C249.522 633.15 248.438 633.311 247.512 633.562L202.912 645.524C201.862 645.808 200.811 646.092 199.761 646.376C198.711 646.66 197.691 646.936 196.703 647.203C197.033 648.175 197.372 649.177 197.719 650.21C198.066 651.243 198.413 652.276 198.761 653.31L194.683 654.412L191.687 643.388L228.766 596.067C229.598 594.98 230.439 593.924 231.288 592.899C232.12 591.812 232.952 590.725 233.784 589.638L233.759 589.546L191.29 600.932C190.055 601.266 188.872 601.552 187.743 601.791C186.553 602.047 185.486 602.269 184.542 602.458C184.906 603.553 185.27 604.648 185.634 605.743C185.998 606.838 186.362 607.933 186.726 609.028L182.648 610.131L178.016 593.085L181.074 592.258C181.757 594.526 182.71 595.959 183.933 596.557C185.157 597.154 186.611 597.258 188.296 596.868C189.981 596.479 191.935 595.984 194.159 595.382L246.105 581.533L247.314 585.979Z" fill="#EAEAEA"/>
<path d="M241.672 541.968C240.601 542.235 239.652 542.431 238.827 542.553C238.001 542.675 237.146 542.832 236.261 543.022C238.585 545.04 240.476 547.281 241.934 549.744C243.323 552.149 244.117 554.755 244.316 557.564C244.659 562.416 243.829 566.1 241.825 568.615C239.758 571.134 237.128 572.506 233.936 572.731C230.999 572.938 228.414 572.221 226.181 570.582C223.879 568.884 221.957 566.645 220.413 563.867C218.8 561.029 217.555 557.941 216.678 554.602C215.732 551.204 215.177 547.907 215.015 544.711L209.078 545.129C206.844 545.286 204.75 545.626 202.798 546.148C200.846 546.671 199.277 547.615 198.091 548.982C196.904 550.349 196.378 552.439 196.513 555.252C196.58 557.108 197.067 558.999 197.973 560.924C198.875 562.785 200.283 564.097 202.198 564.861C202.672 564.314 203.256 563.952 203.949 563.775C204.574 563.539 205.174 563.4 205.748 563.36C206.515 563.306 207.431 563.562 208.498 564.128C209.5 564.699 210.026 565.785 210.075 567.386C210.17 568.726 209.796 569.779 208.951 570.544C208.043 571.314 206.951 571.744 205.674 571.834C203.504 571.987 201.5 571.326 199.663 569.851C197.822 568.313 196.289 566.143 195.065 563.342C193.84 560.541 193.099 557.321 192.841 553.682C192.462 548.32 193.618 544.26 196.311 541.505C198.939 538.753 203.32 537.194 209.453 536.826C211.815 536.66 214.209 536.491 216.635 536.32C218.998 536.154 221.394 536.017 223.824 535.91C226.187 535.744 228.581 535.575 231.007 535.404C232.028 535.333 233.052 535.293 234.078 535.284C235.104 535.276 236.26 535.291 237.546 535.329C237.4 534.184 237.258 533.072 237.117 531.991C236.972 530.846 236.827 529.702 236.682 528.557L240.704 528.274L241.672 541.968ZM218.271 544.481C218.489 546.647 218.939 548.926 219.621 551.315C220.235 553.646 221.093 555.799 222.195 557.775C223.293 559.686 224.685 561.224 226.371 562.389C227.989 563.494 229.913 563.936 232.143 563.715C234.496 563.421 236.23 562.529 237.343 561.039C238.389 559.489 238.841 557.725 238.701 555.746C238.516 553.129 237.877 550.896 236.784 549.048C235.622 547.141 234.08 545.293 232.157 543.504C231.459 543.617 230.695 543.703 229.865 543.761C229.036 543.82 228.174 543.88 227.28 543.943C226.961 543.966 225.939 544.038 224.215 544.159C222.487 544.217 220.506 544.324 218.271 544.481Z" fill="#EAEAEA"/>
<path d="M241.178 492.813C241.378 490.839 241.039 489.422 240.161 488.562C239.22 487.695 237.896 487.112 236.189 486.811C234.419 486.505 232.388 486.236 230.096 486.005L216.723 484.659C211.247 484.108 207.049 484.586 204.13 486.094C201.218 487.537 199.604 490.141 199.287 493.904C199.112 496.266 199.45 498.648 200.3 501.049C201.157 503.387 202.374 505.342 203.951 506.916L232.129 509.752C233.402 509.88 234.545 510.028 235.558 510.194C236.507 510.354 237.513 510.583 238.576 510.883C238.615 509.858 238.683 508.868 238.78 507.913C238.82 506.888 238.859 505.863 238.899 504.837L242.815 505.231L240.841 524.716L237.976 524.427C238.176 522.454 237.837 521.036 236.959 520.176C236.018 519.31 234.694 518.726 232.987 518.426C231.224 518.055 229.196 517.755 226.903 517.524L181.723 512.977C180.705 512.874 179.749 512.778 178.858 512.689C177.909 512.529 176.804 512.321 175.544 512.066C175.491 513.218 175.439 514.371 175.387 515.523C175.341 516.612 175.291 517.733 175.239 518.885L171.227 518.482C171.511 515.68 171.603 513.502 171.503 511.948C171.41 510.331 171.21 509.121 170.906 508.318C170.608 507.452 170.258 506.774 169.858 506.283L170.138 503.513L199.271 506.445C198.203 504.923 197.31 503.257 196.593 501.448C195.818 499.569 195.238 497.677 194.852 495.773C194.472 493.805 194.373 491.93 194.553 490.147C195.114 484.607 197.269 480.804 201.016 478.737C204.706 476.6 210.216 475.868 217.545 476.541L235.321 478.233C236.595 478.362 237.738 478.509 238.75 478.675C239.705 478.771 240.715 478.969 241.778 479.269C241.817 478.244 241.885 477.254 241.982 476.299C242.022 475.273 242.061 474.248 242.101 473.223L246.017 473.617L244.043 493.102L241.178 492.813Z" fill="#EAEAEA"/>
<path d="M255.476 441.394C254.376 441.288 253.416 441.154 252.598 440.993C251.779 440.832 250.92 440.693 250.023 440.576C251.534 443.255 252.562 445.998 253.106 448.806C253.607 451.536 253.478 454.257 252.721 456.969C251.412 461.654 249.391 464.845 246.658 466.543C243.863 468.224 240.923 468.636 237.84 467.78C235.004 466.991 232.809 465.451 231.256 463.16C229.659 460.79 228.6 458.038 228.08 454.904C227.515 451.691 227.381 448.366 227.677 444.928C227.928 441.41 228.515 438.119 229.437 435.055L223.703 433.461C221.544 432.861 219.458 432.48 217.443 432.319C215.428 432.158 213.632 432.522 212.054 433.412C210.477 434.302 209.278 436.095 208.459 438.79C207.898 440.56 207.721 442.504 207.927 444.62C208.151 446.675 209.036 448.383 210.583 449.742C211.214 449.386 211.886 449.241 212.599 449.306C213.267 449.293 213.879 449.363 214.434 449.517C215.174 449.723 215.951 450.271 216.766 451.162C217.518 452.035 217.649 453.234 217.157 454.758C216.795 456.052 216.088 456.918 215.035 457.357C213.921 457.778 212.747 457.817 211.514 457.474C209.418 456.891 207.752 455.598 206.517 453.594C205.3 451.529 204.586 448.972 204.374 445.924C204.162 442.876 204.546 439.595 205.528 436.082C206.974 430.904 209.429 427.468 212.892 425.773C216.294 424.062 220.946 424.059 226.848 425.766C229.13 426.4 231.442 427.043 233.785 427.694C236.067 428.328 238.371 429.002 240.697 429.714C242.978 430.348 245.291 430.991 247.634 431.642C248.62 431.917 249.598 432.222 250.568 432.557C251.537 432.893 252.621 433.294 253.82 433.76C254.068 432.633 254.308 431.538 254.539 430.473C254.787 429.346 255.035 428.219 255.284 427.093L259.168 428.172L255.476 441.394ZM232.582 435.929C232.058 438.041 231.716 440.338 231.555 442.817C231.35 445.218 231.434 447.533 231.808 449.762C232.2 451.93 232.994 453.845 234.191 455.506C235.344 457.089 237.008 458.149 239.184 458.687C241.499 459.198 243.433 458.938 244.983 457.908C246.489 456.798 247.509 455.288 248.042 453.377C248.748 450.85 248.897 448.533 248.488 446.427C248.035 444.242 247.204 441.985 245.994 439.656C245.298 439.529 244.55 439.354 243.748 439.131C242.946 438.909 242.114 438.677 241.251 438.437C240.942 438.352 239.956 438.077 238.291 437.615C236.643 437.09 234.74 436.528 232.582 435.929Z" fill="#EAEAEA"/>
<path d="M258.859 422.636C259.669 420.824 259.792 419.373 259.229 418.282C258.607 417.164 257.533 416.196 256.006 415.377C254.421 414.531 252.576 413.64 250.471 412.703L230.474 403.805C229.538 403.388 228.603 402.972 227.667 402.556C226.758 402.081 225.845 401.535 224.929 400.917C224.518 401.995 224.106 403.073 223.694 404.15C223.25 405.143 222.822 406.179 222.41 407.257L218.814 405.656L220.029 402.94C221.152 400.427 221.689 398.6 221.639 397.457C221.557 396.229 221.368 395.164 221.07 394.261L222.207 391.72C223.195 392.019 224.403 392.452 225.833 393.018C227.204 393.558 228.955 394.267 231.086 395.146C230.016 393.619 229.119 391.784 228.395 389.64C227.671 387.497 227.259 385.282 227.16 382.996C227.086 380.652 227.52 378.428 228.46 376.325C229.192 374.689 230.271 373.453 231.696 372.616C233.122 371.779 234.8 371.79 236.729 372.649C237.197 372.857 237.717 373.263 238.288 373.868C238.8 374.446 239.176 375.174 239.415 376.051C239.595 376.901 239.45 377.853 238.98 378.904C238.347 380.164 237.392 380.965 236.117 381.308C234.783 381.625 233.513 381.41 232.305 380.662C231.593 382.097 231.294 383.785 231.407 385.727C231.546 387.61 232.046 389.549 232.907 391.543C233.71 393.511 234.841 395.451 236.3 397.361L257.915 406.874C259.085 407.395 260.124 407.892 261.034 408.367C261.911 408.757 262.807 409.261 263.723 409.879C264.082 408.918 264.458 408 264.85 407.123C265.209 406.162 265.569 405.202 265.928 404.241L269.525 405.841L261.491 423.806L258.859 422.636Z" fill="#EAEAEA"/>
<path d="M289.117 368.007L286.638 366.035C287.837 364.535 288.356 363.067 288.194 361.629C288.032 360.192 287.45 358.665 286.448 357.05C285.485 355.384 284.357 353.464 283.064 351.29L253.272 302.311L254.711 300.512L310.824 317.804C312.195 318.241 313.907 318.867 315.96 319.682C318.012 320.497 319.574 321.413 320.646 322.43C321.275 321.54 321.905 320.65 322.534 319.761C323.164 318.871 323.793 317.982 324.422 317.092L327.728 319.722L313.998 336.892L311.519 334.919C312.988 332.98 313.561 331.392 313.24 330.154C312.918 328.917 312.146 327.935 310.925 327.208C309.703 326.481 308.502 325.934 307.32 325.567L298.161 322.572L283.023 342.425L288.963 351.445C289.885 352.751 290.577 353.833 291.038 354.691C291.539 355.499 292.076 356.416 292.647 357.444C293.397 356.404 294.126 355.39 294.835 354.4C295.585 353.36 296.314 352.346 297.023 351.356L300.328 353.986L289.117 368.007ZM280.693 338.73L294.542 321.41L275.937 315.317C273.945 314.631 271.958 313.991 269.976 313.395C267.984 312.709 265.992 312.024 264 311.338L263.88 311.488C264.882 313.104 265.865 314.745 266.827 316.41C267.83 318.026 268.838 319.686 269.85 321.392L280.693 338.73Z" fill="#EAEAEA"/>
<path d="M351.711 334.953C350.219 336.26 348.626 337.017 346.932 337.225C345.239 337.432 343.737 336.791 342.426 335.302C341.665 334.437 341.256 333.391 341.199 332.165C341.143 330.938 341.572 329.924 342.486 329.123C343.599 328.063 344.687 327.748 345.749 328.179C346.858 328.569 347.667 329.051 348.175 329.628C348.301 329.772 348.428 329.916 348.555 330.06C348.724 330.252 348.869 330.466 348.99 330.7C349.219 330.669 349.526 330.486 349.912 330.148C350.489 329.642 350.904 328.854 351.155 327.783C351.406 326.712 351.395 325.488 351.121 324.112C350.816 322.507 350.143 320.289 349.101 317.458C348.106 314.586 346.849 311.22 345.329 307.362L312.878 293.162C309.258 291.568 306.461 290.232 304.488 289.153C302.563 288.031 301.166 287.171 300.297 286.571L296.957 289.751L294.357 286.797L309.305 273.703L311.208 275.864L310.919 276.117C309.024 278.033 308.593 279.771 309.627 281.333C310.618 282.847 312.99 284.428 316.743 286.075L341.113 296.761C339.514 292.717 337.909 288.762 336.298 284.898C334.645 280.986 333.013 277.098 331.402 273.234C330.857 271.84 330.291 270.422 329.703 268.98C329.122 267.447 328.643 266.08 328.267 264.878C327.896 263.586 327.774 262.672 327.9 262.136L323.171 266.789L320.57 263.835L331.908 253.904L333.81 256.065C332.621 258.298 332.267 260.608 332.748 262.995C333.234 265.291 334.099 268.065 335.341 271.316L348.452 304.371C350.559 309.672 352.238 314.242 353.487 318.083C354.778 321.971 355.336 325.269 355.161 327.975C355.027 330.729 353.878 333.055 351.711 334.953Z" fill="#EAEAEA"/>
<path d="M364.745 286.652C366.415 285.581 367.313 284.435 367.44 283.213C367.532 281.938 367.164 280.539 366.335 279.018C365.473 277.442 364.417 275.686 363.169 273.749L351.314 255.35C350.76 254.489 350.205 253.628 349.65 252.767C349.15 251.872 348.685 250.915 348.258 249.897C347.323 250.573 346.387 251.248 345.452 251.924C344.536 252.511 343.611 253.142 342.676 253.818L340.544 250.509L343.049 248.903C345.366 247.418 346.817 246.184 347.401 245.2C348.005 244.129 348.43 243.134 348.676 242.216L351.02 240.714C351.682 241.505 352.456 242.53 353.342 243.786C354.193 244.989 355.27 246.542 356.572 248.444C356.513 246.581 356.768 244.554 357.337 242.365C357.906 240.176 358.775 238.098 359.945 236.132C361.168 234.131 362.749 232.509 364.689 231.265C366.198 230.298 367.778 229.855 369.429 229.937C371.08 230.018 372.478 230.947 373.622 232.722C373.899 233.153 374.111 233.777 374.258 234.595C374.37 235.36 374.285 236.174 374.005 237.038C373.689 237.849 373.047 238.565 372.077 239.187C370.857 239.893 369.619 240.04 368.364 239.628C367.075 239.163 366.129 238.286 365.528 236.999C364.147 237.809 362.971 239.057 362.002 240.743C361.086 242.394 360.442 244.289 360.07 246.429C359.663 248.515 359.546 250.756 359.72 253.153L372.592 272.954C373.285 274.03 373.882 275.015 374.383 275.911C374.903 276.718 375.377 277.63 375.804 278.648C376.632 278.042 377.45 277.48 378.258 276.961C379.085 276.355 379.913 275.748 380.74 275.142L382.872 278.451L366.305 289.073L364.745 286.652Z" fill="#EAEAEA"/>
<path d="M419.57 260.846C416.402 262.227 413.476 262.803 410.791 262.577C408.166 262.324 405.68 261.034 403.333 258.706C401.045 256.352 398.848 252.771 396.743 247.963L389.89 232.31C389.479 231.372 389.069 230.434 388.658 229.496C388.306 228.532 388 227.514 387.74 226.44C386.768 226.933 385.767 227.439 384.736 227.958C383.739 228.393 382.754 228.857 381.782 229.35L380.204 225.744L382.932 224.556C385.455 223.456 387.171 222.429 388.081 221.475C389.023 220.436 389.689 219.483 390.078 218.615L392.63 217.503L404.373 244.325C406.58 249.367 408.94 252.842 411.452 254.75C413.997 256.573 416.987 256.701 420.423 255.134C422.627 254.104 424.444 252.51 425.874 250.351C427.338 248.108 428.287 245.809 428.724 243.455L418.829 220.854C418.213 219.447 417.716 218.232 417.339 217.21C416.935 216.129 416.603 215.052 416.343 213.979C415.313 214.498 414.282 215.016 413.252 215.535C412.196 215.995 411.152 216.485 410.122 217.003L408.543 213.398L411.272 212.209C413.795 211.11 415.511 210.083 416.42 209.128C417.363 208.09 418.028 207.136 418.417 206.269L420.969 205.157L435.435 238.437C435.845 239.375 436.394 240.707 437.079 242.433C437.765 244.159 438.306 245.633 438.702 246.857C439.732 246.338 440.763 245.82 441.793 245.301C442.824 244.782 443.854 244.263 444.885 243.745L446.502 247.438L433.916 252.921C433.304 252.001 432.746 251.127 432.244 250.299C431.8 249.445 431.382 248.65 430.99 247.913C429.967 250.523 428.46 253.064 426.468 255.538C424.451 257.952 422.152 259.722 419.57 260.846Z" fill="#EAEAEA"/>
<path d="M468.853 242.692L448.002 215.597C446.423 213.481 445.147 211.654 444.172 210.114C443.198 208.574 442.448 207.276 441.922 206.219C441.459 205.147 441.112 204.277 440.88 203.609L436.941 204.876L435.995 201.055L453.147 196.83L453.839 199.625C451.974 200.084 450.886 200.88 450.573 202.012C450.306 203.066 450.559 204.355 451.332 205.878C452.089 207.34 453.064 208.879 454.256 210.497L465.494 225.13C466.252 226.063 466.995 227.067 467.722 228.14C468.496 229.136 469.255 230.201 469.997 231.336L470.091 231.313C470.171 230.305 470.266 229.227 470.378 228.079C470.551 226.916 470.67 225.799 470.735 224.728L473.139 202.483C473.267 200.87 473.472 199.435 473.755 198.179C474.037 196.923 474.234 195.985 474.344 195.364L468.447 197.114L467.501 193.293L482.229 189.665L482.921 192.46C481.554 192.797 480.52 193.546 479.818 194.708C479.117 195.869 478.562 197.489 478.153 199.567C477.807 201.63 477.421 204.197 476.994 207.268L472.581 241.773L468.853 242.692Z" fill="#EAEAEA"/>
<path d="M519.851 235.958C515.449 236.308 511.38 235.606 507.644 233.849C503.966 232.023 500.956 229.31 498.613 225.709C496.265 222.044 494.883 217.628 494.47 212.46C494.112 207.994 494.766 203.737 496.432 199.688C498.162 195.634 500.75 192.281 504.198 189.631C507.64 186.917 511.753 185.369 516.538 184.988C519.218 184.774 521.742 185.022 524.11 185.732C526.537 186.373 528.715 187.516 530.644 189.16C532.569 190.74 534.149 192.829 535.384 195.427C536.614 197.961 537.373 201.015 537.659 204.587L504.02 207.847C504.408 212.695 505.261 216.929 506.578 220.548C507.954 224.097 509.904 226.799 512.428 228.652C514.947 230.442 518.056 231.189 521.757 230.894C523.734 230.736 525.716 230.225 527.701 229.361C529.75 228.491 531.619 227.379 533.309 226.025C534.998 224.67 536.326 223.216 537.293 221.662L539.743 223.393C538.235 226.21 536.333 228.512 534.036 230.3C531.74 232.089 529.344 233.435 526.848 234.34C524.352 235.246 522.02 235.785 519.851 235.958ZM503.985 203.805L528.387 201.859C528.203 199.563 527.676 197.39 526.806 195.34C525.994 193.222 524.769 191.554 523.13 190.337C521.487 189.055 519.421 188.514 516.933 188.712C513.233 189.007 510.228 190.37 507.919 192.801C505.668 195.164 504.357 198.831 503.985 203.805Z" fill="#EAEAEA"/>
<path d="M566.909 236.444C563.023 236.072 559.611 234.781 556.673 232.57C553.741 230.297 551.526 227.256 550.028 223.448C548.594 219.646 548.112 215.292 548.584 210.387C549.087 205.163 550.583 200.645 553.071 196.832C555.56 193.02 558.762 190.144 562.678 188.205C566.657 186.271 571.004 185.53 575.719 185.982C577.821 186.183 579.864 186.668 581.848 187.436C583.901 188.147 585.499 188.911 586.642 189.728L587.902 176.636C588 175.617 588.092 174.661 588.178 173.77C588.333 172.82 588.536 171.714 588.786 170.452C587.633 170.406 586.48 170.36 585.327 170.314C584.238 170.274 583.117 170.231 581.964 170.185L582.351 166.172C585.154 166.44 587.332 166.52 588.886 166.412C590.439 166.303 591.617 166.094 592.418 165.785C593.283 165.482 593.96 165.129 594.449 164.726L597.22 164.991L591.253 227.009C591.154 228.028 591.025 229.045 590.863 230.058C590.701 231.071 590.495 232.209 590.245 233.47C591.398 233.517 592.519 233.56 593.608 233.6C594.761 233.646 595.914 233.692 597.067 233.738L596.681 237.751L583.015 236.443C582.916 235.469 582.839 234.594 582.786 233.817C582.802 232.983 582.814 232.18 582.824 231.41C580.85 233.214 578.499 234.596 575.771 235.556C573.048 236.453 570.094 236.749 566.909 236.444ZM570.8 232.091C572.902 232.292 575.063 231.888 577.282 230.879C579.564 229.876 581.492 228.55 583.065 226.9C583.075 226.13 583.12 225.33 583.2 224.502C583.285 223.61 583.377 222.655 583.475 221.635L586.219 194.124C584.8 192.83 583.192 191.841 581.393 191.154C579.665 190.41 577.845 189.946 575.933 189.763C572.748 189.458 569.888 190.117 567.353 191.738C564.818 193.36 562.786 195.77 561.257 198.966C559.727 202.163 558.812 205.997 558.51 210.469C558.264 214.367 558.535 217.897 559.324 221.059C560.176 224.226 561.536 226.8 563.403 228.779C565.34 230.7 567.805 231.804 570.8 232.091Z" fill="#EAEAEA"/>
<path d="M602.147 237.112C604.078 237.57 605.528 237.421 606.498 236.664C607.482 235.845 608.237 234.61 608.762 232.959C609.302 231.245 609.84 229.268 610.374 227.026L615.449 205.735C615.686 204.739 615.94 203.812 616.21 202.955C616.495 202.036 616.848 200.969 617.269 199.753C616.133 199.55 614.998 199.346 613.862 199.143C612.788 198.954 611.684 198.758 610.548 198.554L611.483 194.632C614.223 195.282 616.37 195.659 617.924 195.765C619.478 195.87 620.673 195.825 621.509 195.629C622.408 195.447 623.127 195.19 623.666 194.858L626.375 195.5L617.383 233.227C617.086 234.472 616.788 235.586 616.488 236.567C616.266 237.501 615.935 238.475 615.496 239.489C616.507 239.663 617.48 239.861 618.414 240.082C619.425 240.256 620.436 240.43 621.447 240.604L620.535 244.433L601.479 239.914L602.147 237.112ZM624.095 185.192C622.788 184.882 621.762 184.079 621.018 182.784C620.273 181.49 620.087 180.064 620.458 178.508C620.829 176.951 621.639 175.762 622.887 174.94C624.213 174.071 625.53 173.791 626.837 174.101C628.27 174.441 629.319 175.282 629.986 176.624C630.73 177.919 630.917 179.344 630.546 180.901C630.175 182.457 629.334 183.639 628.023 184.446C626.775 185.268 625.465 185.517 624.095 185.192Z" fill="#EAEAEA"/>
<path d="M649.22 255.825C645.209 254.308 641.839 252.006 639.11 248.921C636.462 245.798 634.769 242.147 634.03 237.967C633.374 233.75 633.967 229.219 635.809 224.373C636.992 221.263 638.709 218.457 640.961 215.956C643.212 213.454 645.799 211.422 648.721 209.859C651.726 208.259 654.927 207.314 658.323 207.025C661.719 206.736 665.154 207.248 668.625 208.562C671.978 209.83 674.687 211.437 676.755 213.382C678.883 215.35 680.316 217.432 681.056 219.628C681.796 221.824 681.791 223.909 681.041 225.883C680.54 227.199 679.749 228.2 678.667 228.885C677.607 229.511 676.389 229.563 675.012 229.042C673.493 228.536 672.586 227.68 672.292 226.474C672.08 225.23 672.122 224.22 672.417 223.442C672.645 222.844 672.962 222.279 673.369 221.749C673.799 221.159 674.385 220.697 675.129 220.362C675.196 218.745 674.756 217.381 673.808 216.27C672.884 215.1 671.798 214.175 670.549 213.498C669.383 212.783 668.381 212.267 667.543 211.95C663.472 210.41 659.405 210.753 655.341 212.979C651.359 215.168 648.186 219.373 645.82 225.595C644.297 229.603 643.572 233.4 643.647 236.986C643.781 240.595 644.674 243.739 646.326 246.417C648.002 249.035 650.365 250.921 653.418 252.076C656.232 253.14 659.21 253.411 662.352 252.89C665.495 252.368 668.194 251.302 670.449 249.692L672.101 252.369C669.59 254.293 666.931 255.614 664.125 256.331C661.379 257.072 658.702 257.359 656.094 257.194C653.547 257.051 651.255 256.595 649.22 255.825Z" fill="#EAEAEA"/>
<path d="M699.965 275.105C702.011 276.428 703.678 276.964 704.969 276.713C706.297 276.41 707.496 275.579 708.564 274.219C709.722 272.845 710.96 271.252 712.278 269.441L736.676 235.905C737.429 234.87 738.17 233.906 738.9 233.012C739.667 232.066 740.359 231.224 740.976 230.485C740.005 229.861 739.034 229.237 738.063 228.614C737.092 227.99 736.122 227.366 735.151 226.742L737.636 223.326C740.421 225.264 743.265 227.283 746.168 229.385C749.109 231.435 752.083 233.548 755.09 235.725C760.118 239.366 763.929 242.994 766.522 246.609C769.115 250.225 770.509 253.802 770.705 257.341C770.9 260.88 769.871 264.362 767.617 267.787C766.252 269.88 764.397 271.777 762.052 273.477C759.797 275.162 756.995 276.294 753.646 276.872C750.387 277.436 746.613 277.074 742.326 275.788C738.038 274.501 733.225 271.925 727.885 268.059C727.678 267.909 727.289 267.628 726.719 267.215C726.149 266.802 725.623 266.382 725.142 265.955L716.953 277.211C715.936 278.608 715.026 279.806 714.221 280.803C713.506 281.787 712.851 282.577 712.258 283.175C713.125 283.724 713.966 284.254 714.782 284.765C715.597 285.276 716.393 285.813 717.171 286.376C718.038 286.925 718.879 287.455 719.694 287.966L717.153 291.459L698.102 277.667L699.965 275.105ZM727.458 262.772C728.368 263.589 729.141 264.267 729.777 264.806C730.503 265.332 731.358 265.951 732.343 266.664C735.298 268.804 738.408 270.186 741.673 270.811C744.975 271.385 748.143 271.11 751.176 269.988C754.209 268.865 756.817 266.803 759.001 263.801C760.77 261.369 761.888 259.017 762.353 256.746C762.855 254.424 762.757 252.219 762.059 250.133C761.45 248.033 760.33 246.037 758.699 244.145C757.105 242.202 755.116 240.367 752.731 238.64C750.917 237.327 749.364 236.795 748.074 237.046C746.835 237.334 745.656 238.14 744.535 239.462C743.505 240.77 742.312 242.356 740.956 244.219L727.458 262.772Z" fill="#EAEAEA"/>
<path d="M764.963 330.65C766.33 332.088 767.627 332.756 768.853 332.652C770.126 332.505 771.435 331.884 772.778 330.79C774.168 329.651 775.7 328.29 777.374 326.707L787.137 317.471C791.136 313.688 793.517 310.202 794.282 307.012C795.091 303.868 794.171 300.95 791.523 298.258C789.845 296.585 787.817 295.288 785.439 294.366C783.105 293.49 780.826 293.136 778.6 293.303L758.027 312.764C757.097 313.644 756.238 314.412 755.45 315.07C754.709 315.683 753.876 316.294 752.954 316.903C753.706 317.601 754.412 318.298 755.074 318.994C755.826 319.692 756.578 320.39 757.33 321.088L754.471 323.793L740.977 309.599L743.07 307.62C744.437 309.058 745.733 309.725 746.96 309.622C748.233 309.475 749.541 308.854 750.885 307.759C752.319 306.667 753.873 305.329 755.547 303.746L788.534 272.541C789.278 271.838 789.975 271.178 790.626 270.562C791.367 269.949 792.247 269.249 793.265 268.462C792.425 267.671 791.585 266.88 790.745 266.089C789.949 265.344 789.13 264.577 788.29 263.786L791.219 261.015C793.159 263.056 794.752 264.545 795.996 265.482C797.284 266.466 798.332 267.104 799.141 267.397C799.993 267.736 800.736 267.914 801.37 267.931L803.288 269.949L782.017 290.07C783.871 290.255 785.718 290.666 787.56 291.302C789.492 291.941 791.307 292.736 793.004 293.685C794.745 294.681 796.233 295.828 797.468 297.127C801.304 301.162 802.781 305.271 801.9 309.452C801.109 313.636 798.062 318.281 792.76 323.385L779.854 335.725C778.924 336.605 778.065 337.373 777.277 338.031C776.58 338.69 775.77 339.324 774.847 339.933C775.599 340.631 776.306 341.328 776.967 342.024C777.719 342.722 778.471 343.42 779.223 344.118L776.364 346.823L762.871 332.629L764.963 330.65Z" fill="#EAEAEA"/>
<path d="M794.736 375C795.535 374.238 796.264 373.6 796.921 373.086C797.578 372.573 798.245 372.015 798.92 371.412C795.899 370.807 793.145 369.795 790.657 368.375C788.257 366.972 786.276 365.1 784.712 362.759C782.01 358.714 780.907 355.105 781.404 351.931C781.954 348.722 783.562 346.232 786.227 344.46C788.679 342.831 791.282 342.176 794.036 342.497C796.879 342.836 799.66 343.831 802.379 345.482C805.187 347.15 807.8 349.218 810.217 351.684C812.723 354.168 814.838 356.758 816.562 359.455L821.519 356.16C823.384 354.92 825.036 353.591 826.475 352.173C827.914 350.756 828.811 349.161 829.166 347.388C829.521 345.615 828.943 343.54 827.432 341.163C826.455 339.584 825.095 338.182 823.354 336.958C821.648 335.786 819.773 335.342 817.729 335.624C817.587 336.333 817.259 336.936 816.744 337.432C816.317 337.946 815.864 338.362 815.385 338.681C814.745 339.106 813.821 339.336 812.613 339.371C811.458 339.37 810.463 338.687 809.627 337.321C808.881 336.203 808.685 335.104 809.04 334.022C809.449 332.906 810.186 331.993 811.252 331.284C813.064 330.08 815.134 329.664 817.462 330.038C819.825 330.465 822.233 331.593 824.686 333.421C827.138 335.249 829.377 337.68 831.404 340.713C834.39 345.184 835.395 349.28 834.418 353.003C833.495 356.691 830.457 360.209 825.305 363.557C823.333 364.867 821.334 366.196 819.309 367.542C817.337 368.853 815.32 370.155 813.259 371.448C811.287 372.759 809.289 374.088 807.263 375.434C806.41 376.001 805.54 376.541 804.652 377.055C803.763 377.568 802.75 378.126 801.613 378.728C802.307 379.651 802.982 380.547 803.64 381.416C804.333 382.338 805.026 383.261 805.719 384.183L802.361 386.415L794.736 375ZM813.844 361.262C812.582 359.488 811.062 357.731 809.285 355.992C807.596 354.271 805.784 352.825 803.846 351.653C801.945 350.535 799.972 349.886 797.929 349.708C795.974 349.547 794.082 350.113 792.252 351.406C790.351 352.824 789.285 354.454 789.055 356.298C788.913 358.16 789.393 359.916 790.495 361.565C791.953 363.747 793.614 365.371 795.48 366.436C797.435 367.519 799.692 368.363 802.251 368.967C802.802 368.524 803.424 368.073 804.116 367.612C804.809 367.151 805.529 366.673 806.275 366.177C806.542 366 807.394 365.433 808.833 364.477C810.308 363.573 811.978 362.502 813.844 361.262Z" fill="#EAEAEA"/>
<path d="M806.82 389.793C807.666 391.587 808.688 392.627 809.885 392.914C811.139 393.173 812.576 392.994 814.195 392.375C815.872 391.729 817.753 390.917 819.838 389.938L839.651 380.635C840.578 380.2 841.505 379.765 842.432 379.33C843.386 378.953 844.397 378.62 845.464 378.331C844.914 377.316 844.365 376.302 843.815 375.287C843.351 374.303 842.844 373.304 842.295 372.289L845.857 370.616L847.127 373.308C848.302 375.797 849.339 377.395 850.239 378.104C851.225 378.843 852.158 379.395 853.037 379.76L854.225 382.277C853.353 382.828 852.235 383.459 850.872 384.17C849.567 384.853 847.885 385.713 845.827 386.751C847.685 386.939 849.664 387.459 851.765 388.311C853.865 389.163 855.816 390.298 857.617 391.715C859.445 393.19 860.85 394.969 861.833 397.053C862.598 398.673 862.833 400.295 862.537 401.919C862.242 403.542 861.138 404.803 859.226 405.701C858.763 405.918 858.115 406.045 857.283 406.082C856.51 406.092 855.712 405.901 854.89 405.509C854.126 405.09 853.498 404.36 853.007 403.318C852.464 402.017 852.478 400.773 853.05 399.585C853.68 398.371 854.673 397.551 856.03 397.126C855.405 395.652 854.318 394.324 852.77 393.142C851.249 392.018 849.45 391.13 847.374 390.479C845.355 389.8 843.144 389.389 840.741 389.244L819.405 399.368C818.246 399.912 817.19 400.372 816.235 400.75C815.366 401.158 814.399 401.506 813.332 401.795C813.827 402.694 814.279 403.577 814.689 404.445C815.183 405.344 815.678 406.243 816.173 407.142L812.61 408.815L804.213 391.016L806.82 389.793Z" fill="#EAEAEA"/>
<path d="M822.163 426.553L824.961 425.871C825.433 427.798 826.227 429.02 827.343 429.539C828.52 430.042 829.964 430.151 831.673 429.866C833.444 429.566 835.449 429.143 837.688 428.597L858.952 423.41C859.947 423.167 860.942 422.925 861.937 422.682C862.947 422.501 864.003 422.375 865.106 422.304C864.77 421.2 864.433 420.097 864.097 418.993C863.776 417.951 863.447 416.879 863.11 415.775L867.027 414.82C867.698 417.555 868.325 419.576 868.909 420.882C869.508 422.251 870.078 423.232 870.619 423.825C871.159 424.418 871.701 424.879 872.242 425.208L872.905 427.912C872.314 428.188 871.614 428.424 870.806 428.621C870.013 428.881 869.095 429.17 868.054 429.49C870.127 430.961 871.959 432.787 873.548 434.968C875.199 437.135 876.322 439.43 876.916 441.854C877.678 444.962 877.758 447.71 877.157 450.096C876.556 452.482 875.436 454.501 873.798 456.152C876.057 457.841 878.113 459.909 879.964 462.356C881.894 464.85 883.186 467.433 883.841 470.106C885.166 475.514 884.494 479.894 881.823 483.246C879.215 486.584 874.196 489.092 866.766 490.773L849.396 494.911C848.152 495.214 847.026 495.456 846.015 495.637C845.083 495.864 844.065 496.014 842.962 496.085C843.268 497.064 843.536 498.02 843.764 498.953C844.07 499.932 844.376 500.911 844.682 501.891L840.858 502.823L836.196 483.803L838.994 483.12C839.466 485.047 840.26 486.27 841.375 486.788C842.553 487.291 843.997 487.4 845.706 487.115C847.477 486.815 849.482 486.392 851.721 485.846L864.778 482.661C870.125 481.357 873.922 479.508 876.169 477.116C878.431 474.785 879.082 471.794 878.121 468.142C877.648 466.215 876.741 464.394 875.398 462.679C874.055 460.965 872.556 459.552 870.9 458.44C869.981 458.994 868.946 459.477 867.795 459.889C866.722 460.349 865.563 460.73 864.32 461.034C860.698 461.851 857.053 462.707 853.385 463.602C849.716 464.497 846.04 465.36 842.357 466.193C841.113 466.496 839.986 466.738 838.976 466.919C838.044 467.146 837.026 467.296 835.923 467.367C836.229 468.346 836.496 469.302 836.725 470.235C837.031 471.214 837.337 472.193 837.643 473.173L833.819 474.106L829.156 455.085L831.954 454.402C832.427 456.329 833.213 457.521 834.313 457.977C835.491 458.48 836.934 458.589 838.644 458.304C840.43 458.066 842.443 457.674 844.681 457.128L857.761 454.036C863.124 452.794 866.975 451.031 869.315 448.748C871.654 446.465 872.343 443.497 871.382 439.844C870.91 437.917 870.01 436.128 868.682 434.475C867.417 432.808 865.972 431.48 864.346 430.494C863.6 430.676 862.791 430.873 861.921 431.085C861.128 431.344 860.265 431.588 859.332 431.815L835.363 437.662C834.12 437.965 832.993 438.207 831.983 438.387C831.05 438.615 830.032 438.764 828.93 438.836C829.236 439.815 829.503 440.771 829.731 441.703C830.037 442.683 830.343 443.662 830.649 444.642L826.825 445.574L822.163 426.553Z" fill="#EAEAEA"/>
<path d="M839.277 533.593C840.359 533.37 841.315 533.215 842.145 533.128C842.975 533.041 843.836 532.921 844.728 532.768C842.491 530.653 840.697 528.335 839.346 525.812C838.06 523.351 837.377 520.713 837.298 517.898C837.161 513.036 838.146 509.391 840.255 506.963C842.427 504.533 845.112 503.273 848.311 503.183C851.254 503.101 853.806 503.925 855.968 505.658C858.195 507.452 860.022 509.769 861.446 512.611C862.937 515.514 864.05 518.652 864.785 522.025C865.586 525.459 866 528.777 866.026 531.978L871.976 531.811C874.215 531.748 876.321 531.497 878.293 531.057C880.265 530.618 881.873 529.74 883.117 528.425C884.36 527.109 884.974 525.043 884.959 522.227C884.97 520.37 884.564 518.46 883.741 516.499C882.919 514.601 881.568 513.23 879.687 512.387C879.19 512.913 878.591 513.25 877.891 513.397C877.257 513.607 876.652 513.72 876.076 513.737C875.308 513.758 874.403 513.463 873.362 512.852C872.384 512.24 871.905 511.133 871.924 509.531C871.886 508.188 872.305 507.152 873.18 506.423C874.12 505.692 875.23 505.309 876.509 505.273C878.684 505.212 880.658 505.957 882.431 507.508C884.205 509.123 885.644 511.355 886.749 514.205C887.854 517.055 888.458 520.304 888.561 523.95C888.712 529.324 887.385 533.331 884.578 535.971C881.835 538.609 877.392 539.982 871.249 540.09C868.882 540.157 866.483 540.224 864.052 540.292C861.685 540.359 859.285 540.394 856.852 540.398C854.485 540.465 852.086 540.532 849.655 540.6C848.631 540.629 847.607 540.626 846.581 540.591C845.556 540.555 844.401 540.492 843.118 540.4C843.215 541.549 843.31 542.667 843.405 543.753C843.501 544.903 843.598 546.052 843.694 547.202L839.664 547.315L839.277 533.593ZM862.763 532.069C862.638 529.896 862.285 527.601 861.705 525.184C861.19 522.83 860.424 520.642 859.407 518.622C858.391 516.666 857.066 515.07 855.43 513.836C853.861 512.663 851.957 512.141 849.72 512.267C847.356 512.462 845.587 513.28 844.411 514.721C843.301 516.225 842.774 517.969 842.83 519.952C842.904 522.575 843.448 524.832 844.461 526.725C845.541 528.679 847.003 530.591 848.849 532.46C849.551 532.376 850.318 532.323 851.149 532.299C851.981 532.276 852.845 532.252 853.74 532.226C854.06 532.218 855.084 532.189 856.811 532.14C858.54 532.156 860.524 532.132 862.763 532.069Z" fill="#EAEAEA"/>
<path d="M834.367 574.951C834.943 570.701 836.427 566.897 838.819 563.539C841.266 560.252 844.443 557.774 848.35 556.105C852.312 554.508 856.862 554.055 862 554.748C865.298 555.192 868.42 556.226 871.364 557.85C874.309 559.474 876.872 561.53 879.054 564.02C881.291 566.582 882.932 569.483 883.979 572.724C885.025 575.964 885.3 579.424 884.802 583.103C884.321 586.654 883.365 589.657 881.935 592.112C880.496 594.631 878.79 596.5 876.816 597.719C874.843 598.939 872.81 599.407 870.717 599.125C869.321 598.937 868.168 598.394 867.256 597.496C866.407 596.607 866.082 595.433 866.279 593.975C866.431 592.38 867.061 591.303 868.17 590.742C869.334 590.253 870.329 590.064 871.153 590.175C871.788 590.261 872.409 590.441 873.017 590.717C873.689 591.001 874.272 591.467 874.766 592.115C876.357 591.813 877.587 591.074 878.456 589.9C879.389 588.734 880.045 587.466 880.424 586.097C880.858 584.799 881.135 583.706 881.256 582.818C881.84 578.506 880.589 574.624 877.504 571.173C874.474 567.794 869.661 565.66 863.065 564.772C858.815 564.199 854.951 564.356 851.472 565.244C847.985 566.195 845.123 567.779 842.885 569.996C840.711 572.221 839.405 574.951 838.967 578.186C838.563 581.167 838.97 584.127 840.186 587.068C841.403 590.009 843.049 592.394 845.127 594.224L842.889 596.441C840.448 594.433 838.562 592.145 837.231 589.576C835.891 587.071 835.008 584.53 834.582 581.954C834.147 579.441 834.075 577.107 834.367 574.951Z" fill="#EAEAEA"/>
<path d="M804.492 600.135C805.076 598.239 806.035 596.759 807.367 595.694C808.699 594.63 810.314 594.389 812.211 594.97C813.312 595.308 814.209 595.984 814.901 596.999C815.592 598.015 815.759 599.103 815.401 600.265C815.01 601.752 814.25 602.59 813.12 602.779C811.972 603.03 811.03 603.042 810.296 602.817C810.112 602.761 809.929 602.705 809.745 602.649C809.5 602.573 809.265 602.468 809.039 602.332C808.86 602.478 808.695 602.795 808.545 603.285C808.319 604.019 808.38 604.908 808.728 605.951C809.076 606.995 809.728 608.032 810.683 609.061C811.785 610.269 813.521 611.805 815.893 613.67C818.247 615.596 821.082 617.804 824.401 620.294L859.465 615.377C863.382 614.837 866.463 614.51 868.708 614.395C870.934 614.341 872.575 614.341 873.629 614.397L874.802 609.937L878.565 611.09L872.716 630.082L869.962 629.238L870.075 628.871C870.683 626.246 870.137 624.539 868.438 623.75C866.8 622.98 863.952 622.877 859.895 623.441L833.55 627.114C837.033 629.721 840.474 632.249 843.872 634.696C847.331 637.162 850.76 639.618 854.158 642.066C855.354 642.968 856.58 643.879 857.836 644.799C859.135 645.8 860.26 646.714 861.211 647.541C862.204 648.448 862.788 649.162 862.962 649.684L864.544 643.241L868.308 644.394L863.871 658.798L861.117 657.954C860.958 655.429 860.047 653.275 858.386 651.494C856.767 649.793 854.576 647.883 851.813 645.765L823.312 624.479C818.738 621.068 814.911 618.055 811.833 615.438C808.694 612.802 806.489 610.286 805.218 607.888C803.887 605.472 803.645 602.887 804.492 600.135Z" fill="#EAEAEA"/>
<circle cx="248" cy="717" r="31" fill="#9AA779"/>
<circle cx="810" cy="717" r="31" fill="#9AA779"/>
<path d="M296.673 807.799C298.694 801.145 300.668 794.495 302.597 787.848C304.568 781.153 306.63 774.451 308.783 767.742C309.433 765.616 310.084 763.49 310.734 761.364C311.475 759.23 312.217 757.097 312.958 754.964C313.748 752.871 314.514 750.759 315.255 748.625C314.795 749.158 314.311 749.671 313.802 750.163C313.342 750.696 312.883 751.229 312.423 751.762C310.869 753.466 308.977 755.513 306.747 757.903C304.609 760.285 302.278 762.84 299.755 765.569C297.275 768.25 294.798 770.975 292.325 773.745C289.893 776.466 287.587 779.043 285.406 781.473C284.438 782.498 283.469 783.524 282.5 784.549C281.581 785.615 280.675 786.568 279.783 787.406C280.757 788.138 281.707 788.85 282.632 789.54C283.606 790.272 284.581 791.004 285.555 791.736L282.797 794.935L268.734 783.168L270.803 780.769C272.367 781.993 273.743 782.603 274.931 782.596C276.211 782.582 277.388 782.148 278.462 781.295C279.536 780.441 280.599 779.453 281.651 778.331L311.639 746.351C312.525 745.423 313.385 744.474 314.221 743.504C315.106 742.576 315.97 741.672 316.813 740.792C315.888 740.101 314.963 739.411 314.037 738.72C313.154 737.981 312.25 737.265 311.324 736.575L314.02 733.449L325.285 742.875L313.058 782.333C312.442 784.321 311.801 786.288 311.137 788.235C310.521 790.223 309.905 792.211 309.289 794.199C308.722 796.228 308.11 798.261 307.452 800.297L307.6 800.42C309.268 799.563 311.244 798.547 313.526 797.369C315.851 796.144 317.823 795.082 319.442 794.184C326.2 790.66 333.03 787.197 339.935 783.796C346.93 780.388 354.023 776.769 361.213 772.939L372.109 782.057L370.04 784.456C368.855 783.381 367.64 782.782 366.395 782.658C365.191 782.485 363.916 782.837 362.57 783.712C361.223 784.588 359.742 786.061 358.126 788.13L331.514 822.81C330.902 823.716 330.261 824.557 329.592 825.332C328.924 826.108 328.318 826.811 327.774 827.441C328.7 828.131 329.604 828.846 330.487 829.586C331.462 830.318 332.412 831.029 333.337 831.72L330.578 834.919L314.087 821.118L316.156 818.719C317.719 819.944 319.161 820.525 320.483 820.463C321.804 820.4 323.082 819.801 324.316 818.664C325.599 817.568 326.985 816.058 328.475 814.134L347.693 788.911C348.312 788.095 348.932 787.278 349.552 786.462C350.171 785.645 350.791 784.828 351.411 784.012C352.03 783.195 352.65 782.379 353.27 781.562C352.83 781.778 352.344 781.998 351.814 782.222C351.332 782.486 350.83 782.775 350.306 783.088L298.882 809.647L296.673 807.799Z" fill="#EAEAEA"/>
<path d="M365.464 858.246C365.778 857.189 366.092 856.274 366.407 855.502C366.721 854.73 367.021 853.916 367.307 853.058C364.376 854.054 361.473 854.566 358.597 854.593C355.807 854.59 353.146 853.974 350.613 852.745C346.237 850.621 343.471 848.069 342.314 845.089C341.186 842.051 341.337 839.102 342.769 836.24C344.086 833.607 346.023 831.737 348.58 830.631C351.223 829.495 354.141 828.955 357.333 829.011C360.612 829.037 363.92 829.504 367.258 830.413C370.682 831.293 373.819 832.46 376.669 833.914L379.332 828.591C380.334 826.588 381.106 824.615 381.648 822.673C382.19 820.731 382.172 818.908 381.593 817.205C381.014 815.501 379.472 814.006 376.968 812.719C375.327 811.851 373.442 811.327 371.313 811.148C369.243 810.996 367.389 811.555 365.752 812.824C365.984 813.505 366 814.189 365.8 814.874C365.687 815.53 365.501 816.116 365.243 816.631C364.9 817.318 364.211 817.98 363.177 818.616C362.172 819.195 360.964 819.107 359.553 818.351C358.344 817.764 357.623 816.916 357.391 815.807C357.187 814.641 357.371 813.486 357.944 812.341C358.917 810.395 360.51 808.999 362.723 808.152C364.993 807.333 367.652 807.095 370.701 807.436C373.75 807.778 376.916 808.745 380.198 810.338C385.034 812.686 387.96 815.706 388.974 819.4C390.017 823.036 389.136 827.588 386.33 833.055C385.27 835.173 384.196 837.319 383.108 839.494C382.049 841.612 380.946 843.744 379.801 845.892C378.742 848.009 377.668 850.156 376.58 852.331C376.122 853.247 375.635 854.148 375.119 855.036C374.603 855.924 374.002 856.913 373.314 858.001C374.379 858.447 375.415 858.879 376.422 859.297C377.487 859.743 378.552 860.189 379.617 860.634L377.814 864.24L365.464 858.246ZM375.209 836.834C373.222 835.941 371.021 835.192 368.604 834.588C366.273 833.955 363.972 833.62 361.7 833.584C359.486 833.577 357.445 834.009 355.577 834.881C353.796 835.723 352.433 837.16 351.489 839.192C350.545 841.365 350.434 843.303 351.157 845.006C351.965 846.679 353.262 847.949 355.047 848.815C357.408 849.961 359.666 850.524 361.823 850.503C364.066 850.454 366.452 850.047 368.981 849.283C369.239 848.625 369.553 847.924 369.926 847.18C370.298 846.436 370.684 845.664 371.085 844.862C371.228 844.576 371.686 843.66 372.459 842.115C373.29 840.597 374.207 838.837 375.209 836.834Z" fill="#EAEAEA"/>
<path d="M435.157 892.763C430.879 891.79 427.228 889.931 424.203 887.186C421.192 884.38 419.055 881.002 417.793 877.052C416.606 873.055 416.542 868.798 417.6 864.283C418.73 859.463 420.754 855.361 423.672 851.976C426.589 848.591 430.047 846.196 434.045 844.792C438.057 843.327 442.233 843.088 446.571 844.075C450.848 845.048 454.485 846.968 457.482 849.835C460.493 852.64 462.63 856.018 463.892 859.969C465.154 863.919 465.263 868.121 464.219 872.575C463.118 877.273 461.071 881.338 458.078 884.77C455.16 888.155 451.695 890.58 447.683 892.045C443.67 893.511 439.495 893.75 435.157 892.763ZM436.748 889.269C439.987 890.006 442.768 889.674 445.091 888.275C447.414 886.875 449.317 884.802 450.798 882.054C452.34 879.32 453.49 876.336 454.248 873.102C454.891 870.357 455.246 867.61 455.311 864.861C455.452 862.065 455.222 859.474 454.623 857.089C454.038 854.642 453.01 852.577 451.538 850.892C450.127 849.222 448.2 848.109 445.756 847.553C442.578 846.83 439.767 847.154 437.321 848.526C434.876 849.897 432.821 851.936 431.156 854.643C429.553 857.363 428.358 860.401 427.571 863.756C426.685 867.539 426.36 871.257 426.598 874.91C426.85 878.502 427.795 881.609 429.433 884.231C431.071 886.853 433.509 888.532 436.748 889.269Z" fill="#EAEAEA"/>
<path d="M382.895 865.247C384.738 865.983 386.198 866.049 387.277 865.446C388.38 864.784 389.319 863.677 390.096 862.127C390.897 860.517 391.735 858.647 392.612 856.516L400.94 836.275C401.33 835.328 401.72 834.381 402.109 833.434C402.558 832.51 403.079 831.581 403.671 830.646C402.577 830.278 401.483 829.91 400.389 829.543C399.378 829.139 398.326 828.753 397.232 828.385L398.729 824.746L401.493 825.849C404.049 826.869 405.9 827.333 407.046 827.239C408.275 827.11 409.339 826.88 410.236 826.549L412.822 827.581C412.551 828.575 412.153 829.795 411.628 831.239C411.127 832.624 410.468 834.394 409.651 836.548C411.151 835.424 412.967 834.461 415.096 833.657C417.226 832.854 419.437 832.358 421.729 832.171C424.08 832.007 426.325 832.352 428.465 833.206C430.129 833.871 431.403 834.896 432.286 836.282C433.169 837.668 433.208 839.338 432.405 841.291C432.21 841.764 431.818 842.297 431.228 842.889C430.663 843.421 429.944 843.823 429.071 844.095C428.223 844.307 427.263 844.2 426.193 843.773C424.91 843.191 424.077 842.273 423.694 841.018C423.335 839.703 423.513 838.43 424.227 837.199C422.765 836.547 421.062 836.315 419.116 836.502C417.23 836.714 415.299 837.287 413.323 838.221C411.371 839.095 409.459 840.296 407.585 841.822L398.688 863.697C398.201 864.881 397.733 865.934 397.284 866.857C396.919 867.745 396.44 868.656 395.848 869.591C396.823 869.912 397.757 870.25 398.648 870.606C399.624 870.927 400.599 871.247 401.574 871.568L400.077 875.207L381.799 867.91L382.895 865.247Z" fill="#EAEAEA"/>
<path d="M464.645 893.667C466.613 893.916 468.04 893.612 468.926 892.757C469.82 891.837 470.442 890.529 470.792 888.832C471.151 887.071 471.479 885.048 471.776 882.763L477.639 837.735C477.771 836.72 477.895 835.768 478.011 834.879C478.198 833.935 478.438 832.837 478.73 831.583C477.579 831.503 476.428 831.422 475.277 831.341C474.189 831.268 473.07 831.191 471.919 831.11L472.439 827.112C475.233 827.465 477.408 827.61 478.965 827.549C480.586 827.496 481.802 827.327 482.613 827.042C483.488 826.766 484.177 826.434 484.679 826.045L487.441 826.394L479.492 888.189C479.327 889.458 479.146 890.597 478.951 891.604C478.763 892.548 478.504 893.547 478.173 894.602C479.197 894.667 480.186 894.76 481.138 894.88C482.162 894.945 483.186 895.01 484.211 895.075L483.702 898.978L464.273 896.523L464.645 893.667Z" fill="#EAEAEA"/>
<path d="M491.6 897.006C493.583 897.086 494.978 896.661 495.785 895.733C496.595 894.741 497.099 893.384 497.299 891.663C497.501 889.877 497.65 887.834 497.745 885.532L498.653 863.663C498.695 862.639 498.767 861.682 498.868 860.789C498.972 859.832 499.114 858.717 499.295 857.443C498.141 857.461 496.987 857.479 495.834 857.496C494.744 857.516 493.622 857.535 492.468 857.553L492.636 853.524C495.449 853.638 497.629 853.597 499.174 853.403C500.72 853.209 501.884 852.936 502.667 852.583C503.515 852.233 504.171 851.843 504.637 851.413L507.419 851.525L505.811 890.276C505.758 891.555 505.679 892.705 505.572 893.725C505.533 894.684 505.394 895.704 505.157 896.783C506.183 896.76 507.176 896.768 508.135 896.807C509.161 896.784 510.186 896.761 511.212 896.739L511.049 900.671L491.481 899.883L491.6 897.006ZM503.209 841.844C501.866 841.79 500.705 841.199 499.727 840.071C498.749 838.942 498.293 837.579 498.36 835.98C498.426 834.382 498.993 833.06 500.062 832.014C501.197 830.906 502.435 830.38 503.778 830.434C505.249 830.493 506.44 831.118 507.352 832.307C508.33 833.435 508.786 834.799 508.719 836.397C508.653 837.996 508.054 839.317 506.922 840.36C505.853 841.406 504.616 841.901 503.209 841.844Z" fill="#EAEAEA"/>
<path d="M776.845 798.711C778.188 797.252 778.763 795.92 778.567 794.715C778.324 793.468 777.601 792.221 776.399 790.976C775.149 789.688 773.666 788.276 771.947 786.741L755.625 772.158C754.862 771.476 754.098 770.793 753.334 770.111C752.614 769.382 751.913 768.584 751.232 767.718C750.5 768.608 749.767 769.498 749.034 770.388C748.297 771.189 747.563 772.034 746.83 772.924L743.895 770.301L745.911 768.112C747.775 766.088 748.863 764.528 749.175 763.434C749.482 762.25 749.636 761.185 749.635 760.241L751.521 758.193C752.371 758.781 753.391 759.563 754.58 760.54C755.721 761.473 757.172 762.684 758.933 764.172C758.39 762.4 758.11 760.39 758.092 758.143C758.073 755.895 758.376 753.677 759 751.488C759.667 749.252 760.781 747.287 762.341 745.592C763.555 744.274 764.975 743.44 766.601 743.091C768.228 742.742 769.828 743.271 771.403 744.678C771.785 745.019 772.154 745.563 772.51 746.31C772.818 747.015 772.949 747.818 772.901 748.719C772.806 749.578 772.368 750.432 771.588 751.279C770.587 752.272 769.422 752.734 768.095 752.664C766.72 752.551 765.573 751.955 764.653 750.875C763.521 752.01 762.704 753.511 762.202 755.379C761.743 757.2 761.612 759.185 761.808 761.334C761.956 763.44 762.427 765.621 763.222 767.875L780.898 783.539C781.852 784.392 782.69 785.183 783.41 785.913C784.126 786.552 784.825 787.305 785.506 788.171C786.152 787.375 786.8 786.624 787.45 785.918C788.096 785.122 788.742 784.326 789.388 783.53L792.323 786.153L778.992 800.63L776.845 798.711Z" fill="#EAEAEA"/>
<path d="M537.895 900.363L537.939 897.195C540.371 897.164 542.043 896.642 542.953 895.63C543.864 894.554 544.364 893.121 544.453 891.33C544.606 889.476 544.7 887.365 544.733 884.997L545.292 844.681C545.316 842.953 545.368 841.482 545.449 840.267C545.531 838.988 545.61 837.933 545.685 837.102C544.532 837.15 543.38 837.199 542.227 837.247C541.074 837.296 539.921 837.344 538.768 837.393L538.827 833.169C542.348 833.152 545.868 833.168 549.387 833.215C552.972 833.199 556.684 833.217 560.524 833.269C567.947 833.369 573.72 834.759 577.844 837.439C582.031 840.119 584.021 844.306 583.814 850C583.785 852.048 583.149 854.088 581.905 856.119C580.725 858.151 578.939 859.951 576.549 861.519C574.224 863.024 571.297 864.073 567.769 864.665L567.766 864.857C574.806 864.952 580.094 866.656 583.633 869.967C587.172 873.215 588.908 877.303 588.839 882.231C588.785 886.134 587.747 889.481 585.724 892.27C583.701 895.059 580.983 897.198 577.57 898.688C574.158 900.115 570.276 900.798 565.924 900.74L537.895 900.363ZM552.635 896.721C553.658 896.798 554.873 896.879 556.28 896.962C557.752 896.982 559.095 897 560.311 897.016C561.591 897.033 562.423 897.044 562.807 897.05C567.735 897.116 571.719 895.953 574.761 893.562C577.867 891.108 579.453 887.481 579.52 882.681C579.574 878.778 578.848 875.728 577.343 873.531C575.837 871.335 573.843 869.772 571.359 868.842C568.876 867.913 566.162 867.428 563.219 867.388C561.299 867.363 559.539 867.371 557.938 867.413C556.402 867.393 554.865 867.436 553.328 867.543L553.027 889.237C553.003 890.965 552.95 892.436 552.869 893.651C552.852 894.867 552.774 895.89 552.635 896.721ZM553.38 863.8L560.39 863.702C564.038 863.687 566.928 862.99 569.059 861.611C571.192 860.167 572.721 858.364 573.647 856.2C574.637 854.037 575.116 851.771 575.085 849.403C575.069 845.946 574.306 843.311 572.795 841.499C571.348 839.687 569.541 838.447 567.374 837.778C565.207 837.108 563.068 836.76 560.956 836.731C558.844 836.703 557.272 836.97 556.24 837.532C555.208 838.094 554.523 839.045 554.184 840.384C553.846 841.724 553.66 843.578 553.627 845.945L553.38 863.8Z" fill="#EAEAEA"/>
<path d="M630.681 889.914C630.293 888.878 629.991 887.957 629.776 887.151C629.561 886.344 629.308 885.512 629.018 884.654C627.275 887.18 625.261 889.3 622.976 891.014C620.743 892.653 618.241 893.723 615.47 894.224C610.683 895.089 606.925 894.663 604.197 892.945C601.456 891.164 599.793 888.7 599.207 885.554C598.668 882.66 599.087 880.016 600.463 877.621C601.891 875.151 603.899 873 606.487 871.166C609.127 869.259 612.056 867.688 615.277 866.456C618.549 865.149 621.766 864.243 624.926 863.736L623.836 857.885C623.426 855.683 622.85 853.641 622.109 851.759C621.368 849.876 620.25 848.42 618.756 847.389C617.262 846.359 615.124 846.062 612.341 846.5C610.503 846.767 608.678 847.455 606.866 848.563C605.118 849.659 603.972 851.2 603.431 853.184C604.028 853.596 604.454 854.137 604.709 854.806C605.015 855.401 605.221 855.982 605.327 856.548C605.467 857.303 605.317 858.241 604.874 859.361C604.42 860.419 603.4 861.058 601.814 861.28C600.491 861.519 599.402 861.261 598.545 860.505C597.676 859.687 597.125 858.648 596.89 857.39C596.492 855.251 596.922 853.189 598.18 851.206C599.501 849.211 601.485 847.454 604.131 845.936C606.778 844.417 609.896 843.333 613.486 842.684C618.776 841.728 622.944 842.438 625.991 844.814C629.026 847.127 631.074 851.309 632.136 857.36C632.57 859.688 633.01 862.048 633.455 864.439C633.889 866.767 634.297 869.132 634.679 871.534C635.113 873.862 635.552 876.221 635.997 878.612C636.185 879.619 636.341 880.631 636.465 881.649C636.59 882.667 636.707 883.817 636.815 885.098C637.937 884.83 639.027 884.568 640.086 884.312C641.208 884.044 642.33 883.776 643.452 883.508L644.19 887.472L630.681 889.914ZM625.524 866.945C623.394 867.395 621.18 868.088 618.88 869.024C616.632 869.886 614.588 870.97 612.749 872.278C610.972 873.575 609.601 875.124 608.634 876.924C607.719 878.651 607.498 880.609 607.971 882.8C608.53 885.105 609.614 886.73 611.222 887.675C612.882 888.546 614.688 888.805 616.64 888.452C619.222 887.985 621.37 887.109 623.084 885.824C624.849 884.464 626.512 882.733 628.073 880.63C627.881 879.949 627.709 879.2 627.557 878.382C627.404 877.564 627.246 876.714 627.082 875.834C627.023 875.519 626.836 874.512 626.519 872.814C626.266 871.103 625.934 869.147 625.524 866.945Z" fill="#EAEAEA"/>
<path d="M655.589 881.906L653.81 878.395L662.265 835.834C662.605 834.241 662.931 832.69 663.243 831.182C663.583 829.588 663.953 828.479 664.354 827.854L648.289 836.075C646.164 837.12 644.788 838.51 644.16 840.245C643.561 841.894 643.466 843.759 643.875 845.84C644.255 847.864 644.837 850.074 645.621 852.47L642.95 853.783L636.216 837.947L669.985 821.34L671.374 824.081L663.181 867.796C662.898 869.077 662.642 870.201 662.415 871.168C662.188 872.136 661.76 873.344 661.132 874.794L677.889 866.875C680.301 865.689 681.921 864.215 682.75 862.452C683.578 860.69 683.86 858.697 683.594 856.474C683.329 854.251 682.79 851.914 681.977 849.461L684.475 848.232L691.34 864.325L655.589 881.906Z" fill="#EAEAEA"/>
<path d="M728.668 843.68C727.892 842.891 727.241 842.171 726.716 841.521C726.191 840.871 725.622 840.213 725.007 839.546C724.431 842.547 723.442 845.286 722.039 847.762C720.652 850.15 718.788 852.126 716.447 853.69C712.402 856.391 708.778 857.503 705.575 857.026C702.336 856.496 699.809 854.913 697.995 852.277C696.326 849.852 695.637 847.272 695.93 844.537C696.24 841.713 697.211 838.949 698.844 836.242C700.494 833.447 702.548 830.844 705.006 828.433C707.481 825.934 710.067 823.822 712.764 822.097L709.39 817.194C708.12 815.349 706.762 813.716 705.318 812.295C703.874 810.874 702.257 809.992 700.467 809.648C698.677 809.305 696.593 809.889 694.214 811.4C692.635 812.378 691.238 813.734 690.023 815.469C688.862 817.168 688.435 819.03 688.742 821.057C689.458 821.194 690.069 821.517 690.575 822.026C691.097 822.447 691.522 822.894 691.848 823.369C692.284 824.001 692.526 824.917 692.574 826.116C692.586 827.262 691.909 828.254 690.542 829.089C689.424 829.836 688.319 830.036 687.225 829.688C686.095 829.289 685.168 828.562 684.442 827.507C683.208 825.715 682.767 823.662 683.118 821.35C683.522 819.003 684.631 816.608 686.445 814.165C688.26 811.721 690.684 809.487 693.717 807.461C698.188 804.475 702.304 803.458 706.066 804.408C709.791 805.306 713.369 808.303 716.8 813.4C718.142 815.35 719.503 817.327 720.882 819.331C722.224 821.281 723.558 823.276 724.884 825.315C726.227 827.266 727.587 829.243 728.966 831.246C729.547 832.089 730.101 832.951 730.628 833.83C731.155 834.709 731.729 835.711 732.348 836.837C733.27 836.144 734.165 835.469 735.033 834.812C735.955 834.12 736.877 833.427 737.798 832.735L740.084 836.056L728.668 843.68ZM714.615 824.786C712.842 826.047 711.089 827.564 709.357 829.336C707.641 831.021 706.204 832.827 705.046 834.755C703.94 836.648 703.309 838.609 703.151 840.637C703.011 842.578 703.602 844.453 704.926 846.263C706.375 848.142 708.029 849.192 709.89 849.412C711.767 849.543 713.53 849.058 715.18 847.956C717.362 846.499 718.98 844.841 720.032 842.984C721.101 841.039 721.926 838.795 722.507 836.252C722.055 835.708 721.593 835.093 721.121 834.408C720.649 833.722 720.159 833.011 719.651 832.273C719.47 832.009 718.889 831.166 717.91 829.742C716.983 828.283 715.885 826.631 714.615 824.786Z" fill="#EAEAEA"/>
<path d="M768.005 814.702C767.135 814.016 766.399 813.384 765.796 812.805C765.194 812.226 764.546 811.645 763.852 811.06C763.657 814.108 763.018 816.948 761.936 819.579C760.86 822.121 759.257 824.313 757.129 826.157C753.453 829.342 749.996 830.899 746.757 830.826C743.475 830.706 740.768 829.453 738.637 827.066C736.676 824.87 735.669 822.398 735.617 819.649C735.57 816.81 736.188 813.947 737.469 811.058C738.756 808.08 740.469 805.242 742.606 802.543C744.749 799.755 747.051 797.337 749.512 795.289L745.548 790.85C744.056 789.179 742.504 787.729 740.892 786.501C739.281 785.273 737.565 784.6 735.745 784.484C733.925 784.367 731.929 785.207 729.759 787.003C728.313 788.171 727.097 789.691 726.109 791.563C725.169 793.393 724.979 795.294 725.538 797.265C726.266 797.311 726.913 797.555 727.478 797.997C728.05 798.348 728.527 798.739 728.911 799.168C729.423 799.741 729.777 800.619 729.976 801.802C730.132 802.937 729.583 804.005 728.332 805.005C727.316 805.885 726.244 806.221 725.115 806.014C723.943 805.759 722.931 805.154 722.079 804.199C720.629 802.576 719.934 800.596 719.992 798.26C720.099 795.881 720.899 793.367 722.394 790.717C723.888 788.067 726.014 785.548 728.771 783.159C732.834 779.639 736.792 778.115 740.645 778.586C744.456 779.01 748.383 781.535 752.427 786.159C754.004 787.926 755.602 789.716 757.222 791.53C758.8 793.296 760.374 795.107 761.945 796.963C763.523 798.73 765.121 800.52 766.741 802.334C767.423 803.098 768.081 803.882 768.715 804.688C769.348 805.494 770.043 806.416 770.799 807.454C771.627 806.652 772.431 805.871 773.21 805.111C774.038 804.309 774.866 803.507 775.694 802.705L778.38 805.712L768.005 814.702ZM751.686 797.724C750.084 799.197 748.535 800.92 747.038 802.895C745.546 804.78 744.347 806.751 743.438 808.808C742.578 810.823 742.197 812.846 742.296 814.878C742.4 816.82 743.222 818.606 744.762 820.234C746.436 821.917 748.21 822.751 750.084 822.736C751.964 822.631 753.654 821.929 755.153 820.63C757.136 818.912 758.534 817.066 759.345 815.092C760.163 813.029 760.7 810.701 760.958 808.107C760.44 807.624 759.905 807.072 759.35 806.451C758.796 805.831 758.221 805.186 757.624 804.518C757.411 804.279 756.729 803.515 755.578 802.226C754.475 800.896 753.178 799.395 751.686 797.724Z" fill="#EAEAEA"/>
<defs>
<radialGradient id="paint0_radial_463_2" cx="0" cy="0" r="1" gradientUnits="userSpaceOnUse" gradientTransform="translate(540.5 540.5) rotate(90) scale(493.5)">
<stop offset="0.936667" stop-color="#597743"/>
<stop offset="1" stop-color="#B1D13C"/>
</radialGradient>
<radialGradient id="paint1_radial_463_2" cx="0" cy="0" r="1" gradientUnits="userSpaceOnUse" gradientTransform="translate(540 540) rotate(-90) scale(493)">
<stop offset="0.837885" stop-color="#B1D13C"/>
<stop offset="1" stop-color="#597743"/>
</radialGradient>
</defs>
</svg>
